<svg width="200" height="200" xmlns="http://www.w3.org/2000/svg">
 <!-- Created with Method Draw - http://github.com/duopixel/Method-Draw/ -->
 <g id="Layer_1">
  <title>Layer 1</title>
  <path id="svg_16" d="m5.5,27.45399l0,0c0,-12.24743 9.69583,-22.17594 21.65625,-22.17594l9.84375,0l0,0l47.25,0l88.59373,0c5.74361,0 11.25196,2.33638 15.3133,6.49518c4.06132,4.1588 6.34296,9.79934 6.34296,15.68076l0,55.43985l0,0l0,33.2639l0,0c0,12.24744 -9.69583,22.17594 -21.65625,22.17594l-88.59373,0l-61.7263,56.38826l14.47629,-56.38826l-9.84375,0c-11.96041,0 -21.65625,-9.9285 -21.65625,-22.17594l0,0l0,-33.2639l0,0l-0.00001,-55.43985z" fill="#333135"/>
 </g>
</svg>