<svg width="200" height="200" xmlns="http://www.w3.org/2000/svg">
 <!-- Created with Method Draw - http://github.com/duopixel/Method-Draw/ -->
 <g id="Layer_1">
  <title>Layer 1</title>
  <path id="svg_31" d="m165.63617,88.61728c0.14099,-1.44696 0.22261,-2.90875 0.22261,-4.38539c0,-25.61484 -20.76197,-46.37681 -46.37681,-46.37681c-19.87896,0 -36.78979,12.53287 -43.38643,30.11895c-4.37055,-4.79351 -10.60359,-7.85809 -17.60093,-7.85809c-13.19327,0 -23.88591,10.69264 -23.88591,23.88591c0,1.55826 0.17067,3.07942 0.46006,4.54864c-17.60093,2.90133 -31.06875,18.07582 -31.06875,36.49298c0,20.49484 16.61403,37.10145 37.10145,37.10145l117.79709,0c20.49484,0 37.10145,-16.60661 37.10145,-37.10145c0.00742,-18.18713 -13.09681,-33.25032 -30.36382,-36.4262z" fill="#333135"/>
 </g>
</svg>