<svg xmlns="http://www.w3.org/2000/svg" viewBox="0 0 80.01 81.25"><defs><style>.cls-1{fill:none;}.cls-2{fill:#333135;}</style></defs><g id="레이어_2" data-name="레이어 2"><g id="object"><path class="cls-2" d="M78.76,0H18.25A1.25,1.25,0,0,0,17,1.25V18.12H1.25A1.25,1.25,0,0,0,0,19.37V80a1.25,1.25,0,0,0,1.25,1.25H61.77A1.25,1.25,0,0,0,63,80V63.14H78.76A1.25,1.25,0,0,0,80,61.89V1.25A1.25,1.25,0,0,0,78.76,0ZM60.52,60.64h-41V42.3H33.67a1.25,1.25,0,0,0,0-2.5H18.25A1.25,1.25,0,0,0,17,41.05V61.89a1.25,1.25,0,0,0,1.25,1.25H60.52V78.75H2.5V20.62h58Zm17,0H63V19.37a1.25,1.25,0,0,0-1.25-1.25H19.5V2.5h58Z"/></g></g></svg>