<svg xmlns="http://www.w3.org/2000/svg" viewBox="0 0 84.23 47.55"><defs><style>.cls-1{fill:none;}.cls-2{fill:#333135;}</style></defs><g id="레이어_2" data-name="레이어 2"><g id="object"><path class="cls-2" d="M83.65.42a1.25,1.25,0,0,0-1.29,0L57.46,14.82,43,.37a1.25,1.25,0,0,0-1.77,0L26.77,14.82,1.88.4a1.24,1.24,0,0,0-1.3,0A1.27,1.27,0,0,0,0,1.58L3.51,46.39a1.41,1.41,0,0,0,.06.22c0,.07,0,.14.05.2a.94.94,0,0,0,.16.23c0,.05.07.11.11.15a1.1,1.1,0,0,0,.25.17,1.1,1.1,0,0,0,.14.09,1.29,1.29,0,0,0,.48.1H79.48a1.28,1.28,0,0,0,.47-.1,9.07,9.07,0,0,0,.39-.26.83.83,0,0,0,.11-.15.94.94,0,0,0,.16-.23,1.17,1.17,0,0,0,0-.2.79.79,0,0,0,.06-.22L84.23,1.58A1.25,1.25,0,0,0,83.65.42ZM78.32,45.05H5.91L2.68,3.75,49.37,30.81a1.25,1.25,0,0,0,1.26-2.17L29,16.12,42.12,3,56.26,17.17a1.28,1.28,0,0,0,.89.36.8.8,0,0,0,.15,0,1.2,1.2,0,0,0,.76-.14L81.55,3.75Z"/></g></g></svg>