<svg xmlns="http://www.w3.org/2000/svg" viewBox="0 0 95.96 68.75"><defs><style>.cls-1{fill:#333135;}</style></defs><g id="레이어_2" data-name="레이어 2"><g id="object"><path class="cls-1" d="M95.82,66.93,61.86.68A1.25,1.25,0,0,0,60.75,0h0a1.25,1.25,0,0,0-1.11.67l-21.37,41L27.83,23.14a1.24,1.24,0,0,0-1.07-.64,1.3,1.3,0,0,0-1.09.61L.18,65.57a1.23,1.23,0,0,0,.43,1.71,1.25,1.25,0,0,0,1.71-.43L26.71,26.24,36.89,44.33,25.62,66a1.24,1.24,0,0,0,0,1.21,1.22,1.22,0,0,0,1.06.61L51,68.15a1.38,1.38,0,0,0,1.09-.61,1.24,1.24,0,0,0,0-1.25l-12.38-22L60.74,4,92.65,66.23,65,65.84h0a1.25,1.25,0,0,0-1.25,1.24A1.24,1.24,0,0,0,65,68.34l29.72.41h0a1.25,1.25,0,0,0,1.11-1.82ZM48.88,65.62l-20.11-.28,9.59-18.41Z"/></g></g></svg>