<svg xmlns="http://www.w3.org/2000/svg" viewBox="0 0 85.5 65.51"><defs><style>.cls-1{fill:#333135;}</style></defs><g id="레이어_2" data-name="레이어 2"><g id="object"><path class="cls-1" d="M85.3,19.36,73.32.58a1.24,1.24,0,0,0-1-.58H42.75a1.25,1.25,0,0,0,0,2.5H71.58L82.67,19.88,61,43,18.93.37A1.24,1.24,0,0,0,17.87,0c-.06,0-.11,0-.17,0H12A1.24,1.24,0,0,0,11,.63L.17,19.41a1.24,1.24,0,0,0,.17,1.48L42,65.11a1.26,1.26,0,0,0,.91.39,1.09,1.09,0,0,0,.92-.4L85.16,20.88A1.24,1.24,0,0,0,85.3,19.36Z"/></g></g></svg>