<svg xmlns="http://www.w3.org/2000/svg" viewBox="0 0 108.54 60.69"><defs><style>.cls-1{fill:none;}.cls-2{fill:#333135;}</style></defs><g id="레이어_2" data-name="레이어 2"><g id="object"><path class="cls-2" d="M108.21,29.53A133.43,133.43,0,0,0,91,14.34C77.41,4.33,65.22-.38,54.76.35a1.32,1.32,0,0,0-.48.13C53.16.29,52,.15,50.91.07c-9.8-.71-21.33,4.05-34.23,14.17A131.16,131.16,0,0,0,.31,29.56a1.24,1.24,0,0,0,0,1.66A139.58,139.58,0,0,0,16.69,45.9c12.88,9.81,24.36,14.79,34.13,14.79a31,31,0,0,0,3.49-.2,29.42,29.42,0,0,0,3.4.2c9,0,20.28-5,33.45-14.78a163.47,163.47,0,0,0,17-14.66A1.24,1.24,0,0,0,108.21,29.53ZM3,30.35C7.43,25.47,30.85,1.12,50.73,2.56c14.43,1,29.35,11.74,29.35,27.82,0,14-11.48,25.89-25.77,27.59C40.8,56.32,29.86,45,29.21,31.63H50.93a1.25,1.25,0,0,0,0-2.5h-23a1.25,1.25,0,0,0-1.25,1.25c0,11.53,7,21.81,17,26.91C25.65,53,7,34.5,3,30.35ZM66.06,56.83c9.76-5.24,16.52-15.25,16.52-26.45,0-12.37-8-21.81-18.22-26.69C83,8,101.45,26.14,105.54,30.35,101.37,34.41,82.81,51.83,66.06,56.83Z"/></g></g></svg>