<svg xmlns="http://www.w3.org/2000/svg" viewBox="0 0 107.81 55.76"><defs><style>.cls-1{fill:none;}.cls-2{fill:#333135;}</style></defs><g id="레이어_2" data-name="레이어 2"><g id="object"><path class="cls-2" d="M79.93,0c-5.86,0-14.61,3.89-26,11.54C44.91,5.5,34.8,0,27.88,0a27.88,27.88,0,0,0,0,55.76c6.92,0,17-5.5,26-11.53,9,6,19.11,11.53,26,11.53A27.88,27.88,0,0,0,79.93,0ZM35.32,26.93a1.25,1.25,0,0,0-1.64,1.89c.64.55,8.45,7.29,18,13.89C43.21,48.31,34,53.26,27.88,53.26a25.38,25.38,0,0,1,0-50.76c12.53,0,37.88,20.67,43.49,25.38-2.62,2.2-9.55,7.88-17.47,13.31C43.9,34.33,35.48,27.07,35.32,26.93ZM79.93,53.26c-6.13,0-15.33-4.95-23.78-10.55,9.52-6.6,17.34-13.34,18-13.89a1.21,1.21,0,0,0,.43-.94,1.25,1.25,0,0,0-.43-.95c-.63-.55-8.44-7.28-18-13.88C66.59,6.15,74.79,2.5,79.93,2.5a25.38,25.38,0,0,1,0,50.76Z"/></g></g></svg>