<svg xmlns="http://www.w3.org/2000/svg" viewBox="0 0 68.64 90.65"><defs><style>.cls-1{fill:none;}.cls-2{fill:#333135;}</style></defs><g id="레이어_2" data-name="레이어 2"><g id="object"><path class="cls-2" d="M68.27,11.37a38.82,38.82,0,0,0-55.76,54L.37,77.51a1.25,1.25,0,0,0,0,1.77,38.82,38.82,0,0,0,55.76-54L68.27,13.14A1.25,1.25,0,0,0,68.27,11.37Zm-29.74,28-10-9.73a1.25,1.25,0,1,0-1.75,1.79L48.18,52.25a1.22,1.22,0,0,0,.87.36,1.25,1.25,0,0,0,.87-2.15l-9.6-9.37,14-14A36.31,36.31,0,0,1,3,78.37L26,55.43a1.25,1.25,0,0,0-1.77-1.77L14.28,63.6A36.32,36.32,0,0,1,65.61,12.27Z"/></g></g></svg>