<svg xmlns="http://www.w3.org/2000/svg" viewBox="0 0 95.39 82.46"><defs><style>.cls-1{fill:none;}.cls-2{fill:#333135;}</style></defs><g id="레이어_2" data-name="레이어 2"><g id="object"><path class="cls-2" d="M95.22,40.6,72,.62A1.26,1.26,0,0,0,70.92,0H24.47a1.27,1.27,0,0,0-1.08.62L.17,40.6a1.24,1.24,0,0,0,0,1.26l19.7,33.91A1.25,1.25,0,1,0,22,74.51L2.7,41.23,25.19,2.5h45L92.7,41.23l-5.44,9.36L44.43,51,61.92,22.39a1.25,1.25,0,1,0-2.13-1.3L26.22,75.89,23.4,80.56a1.26,1.26,0,0,0,1.07,1.9H70.92A1.25,1.25,0,0,0,72,81.83l23.22-40A1.24,1.24,0,0,0,95.22,40.6ZM70.2,80H26.69l1.67-2.77L42.89,53.46,85.8,53.1Z"/></g></g></svg>