<svg xmlns="http://www.w3.org/2000/svg" viewBox="0 0 86.79 100.23"><defs><style>.cls-1{fill:none;}.cls-2{fill:#333135;}</style></defs><g id="레이어_2" data-name="레이어 2"><g id="object"><path class="cls-2" d="M80.59,50.16l5.83-5.84a1.25,1.25,0,0,0,0-1.77L44.24.37a1.25,1.25,0,0,0-1.77,0L.37,42.47a1.25,1.25,0,0,0,0,1.77L6.2,50.07.37,55.91a1.25,1.25,0,0,0,0,1.77L42.55,99.87a1.28,1.28,0,0,0,.89.36,1.24,1.24,0,0,0,.88-.36l42.1-42.11a1.24,1.24,0,0,0,0-1.76ZM43.44,97.21,3,56.79,43.35,16.46l24,24a1.25,1.25,0,0,0,1.77-1.77L44.24,13.81a1.29,1.29,0,0,0-1.77,0L8,48.31,3,43.35,43.35,3,83.77,43.44,43.44,83.77,13.26,53.6a1.25,1.25,0,0,0-1.77,1.76L42.55,86.42a1.26,1.26,0,0,0,.89.37,1.22,1.22,0,0,0,.88-.37l34.5-34.49,5,5Z"/></g></g></svg>