<svg xmlns="http://www.w3.org/2000/svg" viewBox="0 0 82.43 82.46"><defs><style>.cls-1{fill:none;}.cls-2{fill:#333135;}</style></defs><g id="레이어_2" data-name="레이어 2"><g id="object"><path class="cls-2" d="M70.35,12.07A41.21,41.21,0,0,0,12.07,70.35,41,41,0,0,0,41.21,82.43h.37c.5,0,1,0,1.51,0s.84,0,1.26,0a30.43,30.43,0,0,0,10.4-2.28A41.29,41.29,0,0,0,82.43,41.21,41,41,0,0,0,70.35,12.07ZM68.73,68.44a30.41,30.41,0,0,0-23-46.69,1.25,1.25,0,0,0-.22,2.49,27.92,27.92,0,0,1,8.52,53.49A38.9,38.9,0,0,1,41.4,79.9,27.9,27.9,0,0,1,22.6,33.13c.29-.31.58-.62.88-.91a1.25,1.25,0,0,0-1.76-1.78q-.49.48-1,1a30.41,30.41,0,0,0,1.74,43c.69.63,1.4,1.23,2.13,1.79a38.71,38.71,0,1,1,44.1-7.75Z"/></g></g></svg>