<svg xmlns="http://www.w3.org/2000/svg" viewBox="0 0 65.86 83.53"><defs><style>.cls-1{fill:#333135;}</style></defs><g id="레이어_2" data-name="레이어 2"><g id="object"><path class="cls-1" d="M64.61,0H1.25A1.25,1.25,0,0,0,0,1.25V20.53a1.25,1.25,0,0,0,2.5,0V2.5H63.36v62H34.18v-47a1.25,1.25,0,0,0-2.5,0v47H2.5V44.86H17.4a1.25,1.25,0,0,0,0-2.5H1.25A1.25,1.25,0,0,0,0,43.61V65.77A1.25,1.25,0,0,0,1.25,67H31.68V82.28a1.25,1.25,0,0,0,2.5,0V67H64.61a1.25,1.25,0,0,0,1.25-1.25V1.25A1.25,1.25,0,0,0,64.61,0Z"/></g></g></svg>