<svg xmlns="http://www.w3.org/2000/svg" viewBox="0 0 82.22 106.9"><defs><style>.cls-1{fill:none;}.cls-2{fill:#333135;}</style></defs><g id="레이어_2" data-name="레이어 2"><g id="object"><path class="cls-2" d="M82.22,40.2a1.3,1.3,0,0,0-.37-.89L42.9.37a1.24,1.24,0,0,0-1.76,0L2.19,39.31a1.26,1.26,0,0,0-.37.89,1.22,1.22,0,0,0,.37.88L13.65,52.54.37,65.82a1.25,1.25,0,0,0,0,1.77l38.94,39a1.28,1.28,0,0,0,.89.36,1.24,1.24,0,0,0,.88-.36L80,67.59a1.27,1.27,0,0,0,.36-.89,1.25,1.25,0,0,0-.36-.88L68.57,54.36,81.85,41.08A1.26,1.26,0,0,0,82.22,40.2ZM42,77.38,30.41,65.76l6-6A1.25,1.25,0,1,0,34.61,58l-6.86,6.86a1.25,1.25,0,0,0-.36.88,1.27,1.27,0,0,0,.36.89L41.14,80a1.26,1.26,0,0,0,1.76,0l23.9-23.9L77.38,66.7,40.2,103.88,3,66.7,40.2,29.52,51.81,41.14l-5.47,5.47a1.25,1.25,0,0,0,1.77,1.76L54.46,42a1.25,1.25,0,0,0,0-1.77L41.08,26.87a1.25,1.25,0,0,0-1.77,0L15.42,50.77,4.84,40.2,42,3,79.2,40.2Z"/></g></g></svg>