<svg xmlns="http://www.w3.org/2000/svg" viewBox="0 0 100.12 70.85"><defs><style>.cls-1{fill:none;}.cls-2{fill:#333135;}</style></defs><g id="레이어_2" data-name="레이어 2"><g id="object"><path class="cls-2" d="M99.89,68.87,51.08.49a1.31,1.31,0,0,0-2,0L.23,68.87a1.24,1.24,0,0,0-.09,1.3,1.25,1.25,0,0,0,1.11.68H22.19a1.25,1.25,0,0,0,0-2.5H3.68L39,18.94,49.23,31.69a1.25,1.25,0,0,0,2,0L61.31,19.13,96.44,68.35H50.06a1.25,1.25,0,0,0,0,2.5H98.87a1.26,1.26,0,0,0,1-2ZM59.51,17.37,50.2,28.92,40.61,17a.84.84,0,0,0-.18-.15l9.63-13.5,9.79,13.72A1.27,1.27,0,0,0,59.51,17.37Z"/></g></g></svg>