<svg xmlns="http://www.w3.org/2000/svg" viewBox="0 0 91.24 69.88"><defs><style>.cls-1{fill:none;}.cls-2{fill:#333135;}</style></defs><g id="레이어_2" data-name="레이어 2"><g id="object"><path class="cls-2" d="M91.23,21.16a1.38,1.38,0,0,0-.08-.27l-.06-.16s0-.05,0-.07L78.24.58a1.24,1.24,0,0,0-1-.58H30.68a1.08,1.08,0,0,0-.27,0L30.2.12a.9.9,0,0,0-.2.14.79.79,0,0,0-.18.14.75.75,0,0,0-.13.18.86.86,0,0,0-.13.23.05.05,0,0,0,0,0,.64.64,0,0,0,0,.2,1.42,1.42,0,0,0,0,.2s0,0,0,.05a1.19,1.19,0,0,0,.05.26,1.66,1.66,0,0,0,.06.21,2.26,2.26,0,0,0,.13.2,1.3,1.3,0,0,0,.15.18,1.18,1.18,0,0,0,.18.13.86.86,0,0,0,.23.13.05.05,0,0,0,0,0L50,9.09,3.74,19.49l9.75-17h5.34a1.25,1.25,0,0,0,0-2.5H12.77a1.24,1.24,0,0,0-1.08.63L.16,20.71l0,0A1.4,1.4,0,0,0,0,21.1v.08a1.16,1.16,0,0,0,0,.37v.06s0,.07,0,.11l.09.21a.91.91,0,0,0,.11.16s0,.07.07.1L44.89,69.48a1.26,1.26,0,0,0,.91.4h0a1.24,1.24,0,0,0,.91-.4L90.92,22.19l0-.05a1,1,0,0,0,.12-.19,1.29,1.29,0,0,0,.09-.16l0-.06s0-.06,0-.1a1,1,0,0,0,0-.3A.91.91,0,0,0,91.23,21.16ZM38.3,2.5H76.51L87,19Zm7.5,64.3L3.65,22.07,54.51,10.63,87.77,21.9Z"/></g></g></svg>