<svg xmlns="http://www.w3.org/2000/svg" viewBox="0 0 75.16 73.47"><defs><style>.cls-1{fill:none;}.cls-2{fill:#333135;}</style></defs><g id="레이어_2" data-name="레이어 2"><g id="object"><path class="cls-2" d="M73.91,21.66a1.25,1.25,0,0,0,1.25-1.25V13.17A1.25,1.25,0,0,0,74.3,12L38,.06a1.3,1.3,0,0,0-.78,0L.86,12A1.26,1.26,0,0,0,0,13.17V37a1.26,1.26,0,0,0,.86,1.19L36.33,49.81V70.49l-30.39-10,12.67-2.86a1.26,1.26,0,0,0,.95-1.5,1.25,1.25,0,0,0-1.5-.94L1,59.08a1.25,1.25,0,0,0-.12,2.41L37.19,73.4a1.12,1.12,0,0,0,.78,0L74.3,61.49a1.25,1.25,0,0,0,.86-1.19V37a1.62,1.62,0,0,0,0-.19,1.36,1.36,0,0,0,0-.2l0,0a1,1,0,0,0-.13-.23,1.13,1.13,0,0,0-.12-.18.75.75,0,0,0-.17-.14,1.7,1.7,0,0,0-.22-.15l-.18,0c-.1,0-.19-.05-.29-.06h0a1.62,1.62,0,0,0-.19,0,.75.75,0,0,0-.2,0L38.83,47.18V13.83a1.25,1.25,0,1,0-2.5,0V47.18L2.5,36.09v-22L37.58,2.57l35.08,11.5v6.34A1.25,1.25,0,0,0,73.91,21.66ZM72.66,38.72V59.4L38.83,70.49V49.81Z"/></g></g></svg>