<svg xmlns="http://www.w3.org/2000/svg" viewBox="0 0 86.79 86.79"><defs><style>.cls-1{fill:none;}.cls-2{fill:#333135;}</style></defs><g id="레이어_2" data-name="레이어 2"><g id="object"><path class="cls-2" d="M86.42,42.55,44.24.37a1.25,1.25,0,0,0-1.77,0L.37,42.47a1.22,1.22,0,0,0-.37.88,1.26,1.26,0,0,0,.37.89L42.55,86.42a1.25,1.25,0,0,0,.89.37,1.21,1.21,0,0,0,.88-.37l42.1-42.1A1.25,1.25,0,0,0,86.42,42.55Zm-43,41.22L3,43.35,43.35,3,71.17,30.83,42.66,59.34,29.93,46.61l9.85-9.84a1.27,1.27,0,0,0,0-1.77A1.25,1.25,0,0,0,38,35L27.28,45.73a1.25,1.25,0,0,0,0,1.77L41.77,62a1.26,1.26,0,0,0,.89.37,1.22,1.22,0,0,0,.88-.37L72.93,32.6,83.77,43.44Z"/></g></g></svg>