<svg xmlns="http://www.w3.org/2000/svg" viewBox="0 0 83.22 78.94"><defs><style>.cls-1{fill:none;}.cls-2{fill:#333135;}</style></defs><g id="레이어_2" data-name="레이어 2"><g id="object"><path class="cls-2" d="M52.73,0A30.52,30.52,0,0,0,24.84,18.25,30.6,30.6,0,1,0,58.37,60.69,30.62,30.62,0,0,0,52.73,0ZM30.49,76.44A28.12,28.12,0,0,1,23.77,21a30.69,30.69,0,0,0,5.77,29.44,1.25,1.25,0,1,0,1.9-1.62,28.2,28.2,0,0,1-4.82-28.37,29,29,0,0,1,3.87-.27,28.11,28.11,0,0,1,0,56.22Zm29-18.57a30.6,30.6,0,0,0-29-40.15c-.91,0-1.8.05-2.69.12a28,28,0,1,1,31.65,40Z"/></g></g></svg>