<svg xmlns="http://www.w3.org/2000/svg" viewBox="0 0 54.32 74.2"><defs><style>.cls-1{fill:none;}.cls-2{fill:#333135;}</style></defs><g id="레이어_2" data-name="레이어 2"><g id="object"><path class="cls-2" d="M53.08,10.39h0a1.24,1.24,0,0,0-1.25,1.24l-.46,45A15.25,15.25,0,0,1,36.14,71.7H36l-2.85,0A15.56,15.56,0,0,1,30,71.31,18.86,18.86,0,0,0,33,69,17.6,17.6,0,0,0,38.29,56.5l.46-45A12.11,12.11,0,0,0,38.1,7.6,11,11,0,0,0,25.74.13,11.08,11.08,0,0,0,16,11l-.47,45.24a17.7,17.7,0,0,0,8,15,14.23,14.23,0,0,1-3.14.3l-2.85,0A15.24,15.24,0,0,1,2.5,56.13a1.25,1.25,0,1,0-2.5,0A17.74,17.74,0,0,0,17.54,74l2.85,0a17.18,17.18,0,0,0,6.37-1.12,17.86,17.86,0,0,0,6.35,1.25l2.85,0h.18A17.74,17.74,0,0,0,53.86,56.66l.46-45A1.26,1.26,0,0,0,53.08,10.39ZM22.43,67.08a15.11,15.11,0,0,1-4.36-10.79l.46-45V11.1a8.65,8.65,0,0,1,7.58-8.5,11.35,11.35,0,0,1,1.44-.1,8.28,8.28,0,0,1,8.18,5.89,9.62,9.62,0,0,1,.52,3.08l-.46,45a15.32,15.32,0,0,1-9,13.73A15.24,15.24,0,0,1,22.43,67.08Z"/></g></g></svg>