<svg xmlns="http://www.w3.org/2000/svg" viewBox="0 0 77.39 77.38"><defs><style>.cls-1{fill:#333135;}</style></defs><g id="레이어_2" data-name="레이어 2"><g id="object"><path class="cls-1" d="M10.21,50.76a30.31,30.31,0,0,1,8-21.85c.31-.33.63-.67,1-1A1.25,1.25,0,0,1,21,29.7c-.3.29-.59.6-.88.91a27.9,27.9,0,0,0,18.8,46.77,38.9,38.9,0,0,0,12.66-2.17A27.92,27.92,0,0,0,43,21.72a1.25,1.25,0,0,1,.22-2.49,30.41,30.41,0,0,1,23,46.69,38.73,38.73,0,1,0-44.1,7.75c-.73-.56-1.44-1.16-2.12-1.79A30.16,30.16,0,0,1,10.21,50.76Z"/></g></g></svg>