<svg xmlns="http://www.w3.org/2000/svg" viewBox="0 0 72.11 63.98"><defs><style>.cls-1{fill:none;}.cls-2{fill:#333135;}</style></defs><g id="레이어_2" data-name="레이어 2"><g id="object"><path class="cls-2" d="M0,64H72.11L36.05,20.46ZM45,34.67a1.25,1.25,0,0,1,.16,1.76L37,46.27a1.24,1.24,0,0,1-1.93,0L26.71,36.16a1.25,1.25,0,0,1,1.92-1.6l7.42,9,7.2-8.68A1.25,1.25,0,0,1,45,34.67Z"/><path class="cls-2" d="M35.09,17.7a1.3,1.3,0,0,1,1.93,0L47.23,30,72.11,0H0L24.88,30Zm-.29-6.5a1.25,1.25,0,0,1,2.5,0v3.54a1.25,1.25,0,1,1-2.5,0Z"/></g></g></svg>