<svg xmlns="http://www.w3.org/2000/svg" viewBox="0 0 102.81 50.76"><defs><style>.cls-1{fill:#333135;}</style></defs><g id="레이어_2" data-name="레이어 2"><g id="object"><path class="cls-1" d="M32.82,24.43c.16.14,8.58,7.4,18.58,14.26,7.92-5.43,14.85-11.11,17.47-13.31C63.26,20.67,37.91,0,25.38,0a25.38,25.38,0,0,0,0,50.76c6.13,0,15.33-4.95,23.78-10.55-9.53-6.6-17.34-13.34-18-13.89a1.25,1.25,0,0,1,1.64-1.89Z"/><path class="cls-1" d="M77.43,0C72.29,0,64.09,3.65,53.65,10.55c9.53,6.6,17.34,13.33,18,13.88a1.25,1.25,0,0,1,.43.95,1.21,1.21,0,0,1-.43.94c-.63.55-8.45,7.29-18,13.89,8.45,5.6,17.65,10.55,23.78,10.55A25.38,25.38,0,0,0,77.43,0Z"/></g></g></svg>