<svg xmlns="http://www.w3.org/2000/svg" viewBox="0 0 64.03 91.34"><defs><style>.cls-1{fill:none;}.cls-2{fill:#333135;}</style></defs><g id="레이어_2" data-name="레이어 2"><g id="object"><path class="cls-2" d="M59.19,9.55V85a1.25,1.25,0,0,1-1.25,1.25H8.35v5H64V9.55Z"/><path class="cls-2" d="M55.69,7.55H7.35V50.2H27.77V34.67a1.25,1.25,0,0,1,2.5,0V51.45A1.25,1.25,0,0,1,29,52.7H6.1a1.25,1.25,0,0,1-1.25-1.25V6.3A1.25,1.25,0,0,1,6.1,5.05H55.69V0H0V81.79H55.69ZM29.51,75.3a1.25,1.25,0,0,1-2.5,0V60.45a1.25,1.25,0,0,1,2.5,0Z"/></g></g></svg>