<svg xmlns="http://www.w3.org/2000/svg" viewBox="0 0 76.18 100.87"><defs><style>.cls-1{fill:#333135;}</style></defs><g id="레이어_2" data-name="레이어 2"><g id="object"><path class="cls-1" d="M38.06,23.86,51.44,37.24a1.24,1.24,0,0,1,0,1.76l-6.35,6.36a1.25,1.25,0,1,1-1.77-1.77l5.47-5.47L37.18,26.51,0,63.69l37.18,37.18L74.36,63.69,63.78,53.11,39.89,77a1.29,1.29,0,0,1-.89.37,1.25,1.25,0,0,1-.88-.37L24.74,63.63a1.22,1.22,0,0,1-.37-.88,1.26,1.26,0,0,1,.37-.89L31.6,55a1.25,1.25,0,0,1,1.76,1.77l-6,6L39,74.36,76.18,37.18,39,0,1.82,37.18,12.4,47.75,36.3,23.86A1.24,1.24,0,0,1,38.06,23.86Z"/></g></g></svg>