<svg xmlns="http://www.w3.org/2000/svg" viewBox="0 0 57.46 91.22"><defs><style>.cls-1{fill:none;}.cls-2{fill:#333135;}</style></defs><g id="레이어_2" data-name="레이어 2"><g id="object"><path class="cls-2" d="M57.46,28.73A28.73,28.73,0,0,0,0,28.73C0,33.6,2.19,39,6.87,45.61,2.92,51.37,0,57.35,0,62.49a28.73,28.73,0,0,0,57.46,0c0-5.14-2.92-11.13-6.87-16.88C55.14,39,57.46,33.31,57.46,28.73ZM55,62.49a26.23,26.23,0,0,1-52.46,0c0-4.81,3-10.61,6.94-16.21l0,0c6.76-9.53,16.41-18.5,19.26-21.07C31.58,27.74,41.24,36.72,48,46.26l0,0C52,51.89,55,57.68,55,62.49ZM29.55,22.55a1.27,1.27,0,0,0-1.64,0A147.1,147.1,0,0,0,8.4,43.45c-4-5.85-5.9-10.56-5.9-14.72a26.23,26.23,0,0,1,52.46,0c0,3.89-2,8.84-5.92,14.69A147.72,147.72,0,0,0,29.55,22.55Z"/></g></g></svg>