<svg xmlns="http://www.w3.org/2000/svg" viewBox="0 0 52.46 63.54"><defs><style>.cls-1{fill:#333135;}</style></defs><g id="레이어_2" data-name="레이어 2"><g id="object"><path class="cls-1" d="M26.23,0C23.38,2.57,13.73,11.54,7,21.07l0,0C3,26.71,0,32.51,0,37.32a26.23,26.23,0,0,0,52.46,0c0-4.81-3-10.6-6.94-16.21l0,0C38.74,11.55,29.08,2.57,26.23,0ZM44.29,25.14a88.57,88.57,0,0,1-16.81,18V58.31a1.25,1.25,0,0,1-2.5,0V43.17A87.91,87.91,0,0,1,8.14,25.57a1.25,1.25,0,0,1,2-1.46A88.12,88.12,0,0,0,25,40V35.81a1.25,1.25,0,0,1,2.5,0v4.11A89.65,89.65,0,0,0,42.25,23.7a1.25,1.25,0,1,1,2,1.44Z"/></g></g></svg>