<svg xmlns="http://www.w3.org/2000/svg" viewBox="0 0 86.37 74.77"><defs><style>.cls-1{fill:#333135;}</style></defs><g id="레이어_2" data-name="레이어 2"><g id="object"><path class="cls-1" d="M43.18,50.07a65.72,65.72,0,0,0-8.87.6L28.74,38.22,44.25,4.11l19.4,37.42a1.25,1.25,0,1,0,2.22-1.15L45.29.67A1.29,1.29,0,0,0,44.15,0,1.26,1.26,0,0,0,43,.73l-16.81,37a1.27,1.27,0,0,0,0,1l5.53,12.33C13.41,54.26,0,64.66,0,73.52a1.25,1.25,0,0,0,1.25,1.25h18.6a1.25,1.25,0,1,0,0-2.5H2.62c1.3-7,13.15-16.11,30.18-18.87L42,74a1.25,1.25,0,0,0,1.14.74H85.12a1.25,1.25,0,0,0,1.25-1.25C86.37,63,66.44,50.07,43.18,50.07ZM44,72.27,35.37,53a65.81,65.81,0,0,1,7.81-.47,58.82,58.82,0,0,1,29,7.45C78.7,63.77,83,68.35,83.74,72.27Z"/></g></g></svg>