<svg xmlns="http://www.w3.org/2000/svg" viewBox="0 0 68.03 94.34"><defs><style>.cls-1{fill:none;}.cls-2{fill:#333135;}</style></defs><g id="레이어_2" data-name="레이어 2"><g id="object"><path class="cls-2" d="M66.78,7.55H60.69V1.25A1.25,1.25,0,0,0,59.44,0H1.25A1.25,1.25,0,0,0,0,1.25V85.54a1.25,1.25,0,0,0,1.25,1.25h6.1v6.3A1.25,1.25,0,0,0,8.6,94.34H66.78A1.25,1.25,0,0,0,68,93.09V8.8A1.25,1.25,0,0,0,66.78,7.55ZM2.5,84.29V2.5H58.19V7.55H8.6A1.25,1.25,0,0,0,7.35,8.8V54A1.25,1.25,0,0,0,8.6,55.2H31.52A1.25,1.25,0,0,0,32.77,54V37.17a1.25,1.25,0,0,0-2.5,0V52.7H9.85V10.05H58.19V84.29Zm63,7.55H9.85v-5H59.44a1.25,1.25,0,0,0,1.25-1.25V10.05h4.84Z"/></g></g></svg>